PathFileType	4	(X/Y/Z)	G:\GRF\jawan data\CompiledGRF\03. Mohit Kumar\0231~ac~Walking 02_markers.trc
DataRate	CameraRate	NumFrames	NumMarkers	Units	OrigDataRate	OrigDataStartFrame	OrigNumFrames
100.000000	100.000000	14	18	mm	100.000000	222	891
Frame#	Time	c7			r should			l should			sacrum			r asis			r bar 1			r knee 1			r bar 2			r mall			r heel			r met			l asis			l bar 1			l knee 1			l bar 2			l mall			l heel			l met			
		X1	Y1	Z1	X2	Y2	Z2	X3	Y3	Z3	X4	Y4	Z4	X5	Y5	Z5	X6	Y6	Z6	X7	Y7	Z7	X8	Y8	Z8	X9	Y9	Z9	X10	Y10	Z10	X11	Y11	Z11	X12	Y12	Z12	X13	Y13	Z13	X14	Y14	Z14	X15	Y15	Z15	X16	Y16	Z16	X17	Y17	Z17	X18	Y18	Z18	

223	2.22	2830.8544921875	1499.428344726563	201.0226135253906	2717.21337890625	1441.96533203125	48.41207504272461	2774.9208984375	1450.380249023438	380.378662109375	2872.08544921875	1032.281127929688	219.5510711669922	2682.16845703125	999.423828125	96.78514099121094	2798.7470703125	591.26953125	41.24081420898438	2795.616455078125	504.8506164550781	96.64893341064453	2793.677734375	97.63118743896484	143.683837890625	nan	nan	nan	nan	nan	nan	2748.388427734375	29.41494560241699	153.6248779296875	2697.42578125	1010.573059082031	345.4961547851563	nan	nan	nan	2548.24462890625	537.2472534179688	382.3216857910156	2596.457763671875	262.6038208007813	432.9696350097656	2595.3486328125	84.84970092773438	367.8613891601563	nan	nan	nan	nan	nan	nan	
224	2.23	2824.0908203125	1499.175537109375	202.0013580322266	2709.208984375	1441.54833984375	49.05342102050781	2766.5361328125	1449.834228515625	381.0964965820313	2864.40234375	1031.374633789063	220.0133972167969	2675.042724609375	998.483154296875	96.86177825927734	2793.864501953125	590.804443359375	41.7409553527832	2791.14501953125	504.3486328125	97.05101013183594	2792.33349609375	98.31986999511719	143.7528381347656	nan	nan	nan	nan	nan	nan	2748.195068359375	29.29049110412598	153.3347473144531	2687.66796875	1010.107849121094	345.7276306152344	2593.6572265625	612.049560546875	433.7999877929688	2540.00146484375	536.7909545898438	381.6568298339844	2576.545166015625	260.7016906738281	433.6770324707031	2568.852294921875	82.69612121582031	369.1664428710938	2622.8115234375	35.33265686035156	312.9702758789063	nan	nan	nan	
225	2.24	2816.17822265625	1498.460815429688	202.8460845947266	2700.942138671875	1441.111328125	49.91446304321289	2758.101318359375	1449.22509765625	381.9569396972656	2856.561767578125	1030.370483398438	220.6115417480469	2667.870849609375	997.5575561523438	97.05148315429688	2788.943603515625	590.3598022460938	42.2328987121582	2786.569091796875	503.9776611328125	97.58226776123047	2790.926025390625	99.01154327392578	143.7895660400391	nan	nan	nan	nan	nan	nan	2748.167724609375	29.30980110168457	153.3108825683594	2678.66357421875	1009.371765136719	345.9216003417969	2587.65380859375	610.8900756835938	433.939453125	2531.875244140625	535.9768676757813	381.248291015625	2557.364013671875	259.088623046875	434.4038696289063	2542.975341796875	81.51701354980469	370.280517578125	2595.441162109375	32.15728759765625	314.1410217285156	nan	nan	nan	
226	2.25	2807.936767578125	1497.5087890625	203.7237548828125	2692.662841796875	1440.67626953125	50.80142974853516	2749.53564453125	1448.459716796875	382.7329711914063	2848.66650390625	1029.33837890625	221.3467864990234	2660.3564453125	996.3921508789063	97.29151916503906	2783.834228515625	589.8504638671875	42.86349487304688	2782.0595703125	503.7141418457031	98.19301605224609	2789.518310546875	99.72576141357422	143.7389526367188	nan	nan	nan	nan	nan	nan	2748.10791015625	29.28158187866211	153.236328125	2671.49365234375	1008.354797363281	346.0309753417969	2583.03662109375	610.1746826171875	433.8485412597656	2524.135986328125	535.16015625	381.0570678710938	2539.1484375	257.8189392089844	434.9859924316406	2517.620849609375	80.82047271728516	371.281982421875	2568.53564453125	29.43475151062012	315.3598022460938	nan	nan	nan	
227	2.26	2799.674560546875	1496.479248046875	204.6856689453125	2684.43310546875	1440.234375	51.60634231567383	2740.783203125	1447.58349609375	383.491455078125	2840.6923828125	1028.309448242188	222.2242431640625	2652.9326171875	995.386962890625	97.58649444580078	2778.58203125	589.2940673828125	43.41947555541992	2777.02294921875	502.9748229980469	98.7777099609375	2788.174072265625	100.5509643554688	143.6885986328125	nan	nan	nan	nan	nan	nan	2747.988037109375	29.16196823120117	153.1694641113281	2663.9150390625	1007.206787109375	346.1595764160156	nan	nan	nan	2516.3798828125	534.0980224609375	380.7073974609375	2521.9521484375	256.9560241699219	435.3938903808594	2493.35791015625	80.82657623291016	372.3059692382813	2542.4951171875	27.3699893951416	316.6437683105469	nan	nan	nan	
228	2.27	2791.30224609375	1495.369140625	205.7227935791016	2675.818115234375	1439.552124023438	52.628662109375	2732.21435546875	1446.713500976563	384.4895935058594	2832.524658203125	1027.254516601563	223.2394409179688	2645.131591796875	994.0999145507813	97.93081665039063	2773.17822265625	588.727783203125	43.99241256713867	2771.91455078125	502.2197875976563	99.37322998046875	2786.74560546875	101.4412002563477	143.5940246582031	nan	nan	nan	nan	nan	nan	2747.95556640625	29.00872611999512	153.2431793212891	2653.104736328125	1006.512634277344	346.3260498046875	nan	nan	nan	2508.654541015625	532.9434204101563	380.257080078125	2505.596435546875	256.4353637695313	435.7366638183594	2469.97412109375	81.13251495361328	373.1942443847656	2517.70263671875	26.01321601867676	317.958984375	nan	nan	nan	
229	2.28	2782.9169921875	1494.215576171875	206.8540802001953	2667.341552734375	1438.937622070313	53.72529602050781	2723.43359375	1445.661010742188	385.4849548339844	2824.289794921875	1026.21875	224.4017944335938	2637.49560546875	992.8845825195313	98.22235107421875	2767.563232421875	588.0903930664063	44.60966491699219	2766.89306640625	501.7344360351563	100.1182327270508	2785.146240234375	102.3006973266602	143.5913848876953	nan	nan	nan	nan	nan	nan	2747.88916015625	28.90999221801758	153.1903228759766	2643.658935546875	1005.693420410156	346.6385192871094	2553.566650390625	603.6129760742188	434.0521850585938	2501.11865234375	531.8209838867188	379.8943786621094	2490.166015625	255.8609771728516	436.2843017578125	2447.74609375	81.81467437744141	374.0492858886719	2494.235595703125	25.20247268676758	319.2267456054688	nan	nan	nan	
230	2.29	2774.526611328125	1493.048461914063	208.0110626220703	2658.970458984375	1438.309448242188	54.7537956237793	2714.368408203125	1444.396728515625	386.4688415527344	2815.96630859375	1025.163818359375	225.6812438964844	2629.654296875	991.80615234375	98.79692840576172	2761.77783203125	587.3515014648438	45.3304557800293	2761.761474609375	501.2043762207031	100.6627349853516	2783.460205078125	103.2480621337891	143.5693359375	nan	nan	nan	nan	nan	nan	2747.787841796875	28.85149765014648	153.1356201171875	2635.4814453125	1004.378540039063	346.9638061523438	2547.5205078125	602.1838989257813	433.9085998535156	2493.5673828125	530.6986694335938	379.6388854980469	2475.6796875	255.2731018066406	436.9895324707031	2426.94091796875	82.85781097412109	374.7626953125	2472.27099609375	24.90326690673828	320.3157043457031	nan	nan	nan	
231	2.3	2766.040283203125	1491.899536132813	209.2308349609375	2650.351806640625	1437.480224609375	55.88587951660156	2705.374755859375	1443.052490234375	387.5957641601563	2807.454833984375	1023.991943359375	227.0010681152344	2621.45068359375	990.4869995117188	99.49106597900391	2755.90087890625	586.7378540039063	46.05133056640625	2756.300048828125	500.5027770996094	101.1437225341797	2781.859375	104.3786087036133	143.4463195800781	nan	nan	nan	nan	nan	nan	2747.71337890625	28.82380485534668	153.0558929443359	2625.60595703125	1003.429443359375	347.3744506835938	2542.301025390625	600.780029296875	433.7175903320313	2485.92626953125	529.4863891601563	379.7875061035156	2461.46337890625	255.2289733886719	437.5195007324219	2407.607421875	83.982666015625	375.2557067871094	2451.573486328125	24.54275894165039	321.0489196777344	nan	nan	nan	
232	2.31	2757.362060546875	1490.736694335938	210.5515289306641	2641.80078125	1436.544189453125	56.96306991577148	2696.177490234375	1441.48291015625	388.7628784179688	2798.838134765625	1022.744750976563	228.3689117431641	2613.648193359375	989.4364013671875	99.95298767089844	2749.986083984375	586.2532958984375	46.74565505981445	2750.69873046875	499.91943359375	101.9372787475586	2780.21826171875	105.704963684082	143.294677734375	nan	nan	nan	nan	nan	nan	2747.753662109375	28.84813117980957	153.0475463867188	2614.88330078125	1002.434509277344	347.7935180664063	nan	nan	nan	2478.12548828125	528.3848876953125	380.0520935058594	2447.31591796875	254.9634552001953	437.5933227539063	2389.75634765625	84.96896362304688	375.5783386230469	2432.93603515625	24.61954307556152	321.6645202636719	nan	nan	nan	
233	2.32	2748.656005859375	1489.592407226563	211.9204711914063	2633.494140625	1435.660278320313	58.04587173461914	2687.311767578125	1440.042724609375	390.0864562988281	2790.068115234375	1021.404174804688	229.8052673339844	2605.574951171875	988.2745971679688	100.4773483276367	2743.91796875	585.8388671875	47.47966384887695	2745.1044921875	499.5465393066406	102.7430267333984	2778.287841796875	107.0502700805664	143.1104125976563	nan	nan	nan	nan	nan	nan	2747.677734375	28.77589225769043	153.0321197509766	2605.33251953125	1001.597900390625	348.1235656738281	2521.49560546875	597.083740234375	434.8065490722656	2470.1689453125	527.451416015625	380.08349609375	2433.60498046875	254.8711853027344	437.601318359375	2373.672607421875	85.80026245117188	375.7525939941406	2416.78466796875	25.56107521057129	322.2241821289063	nan	nan	nan	
234	2.33	2739.93017578125	1488.488037109375	213.3163146972656	2624.90673828125	1434.668579101563	59.34756088256836	2678.2216796875	1438.483642578125	391.3737487792969	2781.14794921875	1020.052673339844	231.2701873779297	2597.174072265625	987.1176147460938	101.1777954101563	2737.63525390625	585.4246826171875	48.24750518798828	2739.266357421875	499.0555725097656	103.3806381225586	2777.112060546875	108.1127166748047	142.9039764404297	nan	nan	nan	nan	nan	nan	2747.65283203125	28.78003311157227	153.0756988525391	2596.9873046875	1000.535339355469	348.7893371582031	2515.19482421875	596.3384399414063	435.0127563476563	2461.5732421875	526.2533569335938	380.0687866210938	2420.78125	254.6116943359375	437.8201904296875	2359.297119140625	86.28610992431641	375.7926635742188	2402.892333984375	26.84038162231445	322.87939453125	nan	nan	nan	
235	2.34	2731.1689453125	1487.493530273438	214.783447265625	2616.123046875	1433.453247070313	60.47953414916992	2669.1337890625	1436.995483398438	392.6985168457031	2772.097412109375	1018.770568847656	232.7572631835938	2591.617431640625	986.4605102539063	101.6259765625	2731.36962890625	585.2223510742188	49.01448822021484	2733.33544921875	498.7373962402344	103.9584350585938	nan	nan	nan	nan	nan	nan	nan	nan	nan	2747.4931640625	28.74505233764648	152.9677734375	2587.13232421875	999.9892578125	349.6383361816406	2506.63037109375	595.2604370117188	435.4258422851563	2452.7373046875	525.2142944335938	380.3012084960938	2408.71044921875	254.1071472167969	438.1095886230469	2346.683837890625	86.26873016357422	375.7199096679688	2390.972900390625	26.74810028076172	323.7388000488281	nan	nan	nan	
236	2.35	2722.27734375	1486.539428710938	216.3297576904297	2607.480224609375	1432.437622070313	61.71377944946289	2660.1474609375	1435.600708007813	394.0831298828125	2762.9013671875	1017.590759277344	234.2987670898438	nan	nan	nan	2724.9453125	585.12255859375	49.78838729858398	2727.114990234375	498.5023803710938	104.654670715332	2772.54833984375	112.3480987548828	142.4774627685547	nan	nan	nan	nan	nan	nan	2747.277099609375	28.72758483886719	152.9090118408203	2579.19970703125	998.8828735351563	350.6973571777344	2497.650146484375	594.5640869140625	435.9269104003906	2443.873046875	524.4984741210938	380.7876281738281	2397.838134765625	253.4639892578125	438.2620544433594	2335.937744140625	85.73183441162109	375.7035217285156	2380.857421875	26.22525215148926	324.3153381347656	nan	nan	nan	
